<svg width="68" height="65" viewBox="0 0 68 65" fill="none" xmlns="http://www.w3.org/2000/svg">
<path d="M63.7781 34.7365V60.7524H14.172V34.7365H63.7781ZM67.9999 30.489H9.9502V64.9999H67.9999V30.489Z" fill="#999999"/>
<path d="M52.1682 30.489L58.1104 36.4674C58.0655 36.6877 57.9785 36.8921 57.9785 37.1257C57.9785 39.0291 59.5115 40.5689 61.4034 40.5689C61.6356 40.5689 61.8361 40.4813 62.0551 40.4388L68 46.4171V30.489H52.1682Z" fill="#999999"/>
<path d="M56.1257 51.1903C58.0173 51.1903 59.5507 49.6475 59.5507 47.7445C59.5507 45.8414 58.0173 44.2987 56.1257 44.2987C54.2342 44.2987 52.7008 45.8414 52.7008 47.7445C52.7008 49.6475 54.2342 51.1903 56.1257 51.1903Z" fill="#999999"/>
<path d="M38.975 56.8075C44.6962 56.8075 49.3342 52.7498 49.3342 47.7444C49.3342 42.739 44.6962 38.6813 38.975 38.6813C33.2537 38.6813 28.6157 42.739 28.6157 47.7444C28.6157 52.7498 33.2537 56.8075 38.975 56.8075Z" fill="#999999"/>
<path d="M21.8238 51.1876C23.7139 51.1876 25.2461 49.6461 25.2461 47.7445C25.2461 45.8429 23.7139 44.3014 21.8238 44.3014C19.9337 44.3014 18.4015 45.8429 18.4015 47.7445C18.4015 49.6461 19.9337 51.1876 21.8238 51.1876Z" fill="#999999"/>
<path d="M9.95032 46.4171L15.8925 40.4388C16.1115 40.4839 16.3147 40.5715 16.5469 40.5715C18.4388 40.5715 19.9692 39.0291 19.9692 37.1257C19.9692 36.8921 19.8821 36.6904 19.8372 36.47L25.7821 30.489H9.95032V46.4171Z" fill="#999999"/>
<path d="M19.9717 58.3632C19.9717 56.4598 18.4387 54.92 16.5468 54.92C16.3146 54.92 16.114 55.0077 15.895 55.0501L9.9502 49.0718V64.9999H25.7819L19.8398 59.0215C19.8846 58.8012 19.9717 58.5941 19.9717 58.3632Z" fill="#999999"/>
<path d="M61.4034 54.9174C59.5115 54.9174 57.9811 56.4598 57.9811 58.3632C57.9811 58.5968 58.0682 58.7985 58.113 59.0189L52.1682 64.9999H68V49.0718L62.0578 55.0501C61.8388 55.005 61.6356 54.9174 61.4034 54.9174Z" fill="#999999"/>
<path d="M48.7435 24.3142C50.6335 24.3142 52.1658 22.7727 52.1658 20.8711C52.1658 18.9695 50.6335 17.428 48.7435 17.428C46.8534 17.428 45.3212 18.9695 45.3212 20.8711C45.3212 22.7727 46.8534 24.3142 48.7435 24.3142Z" fill="#999999"/>
<path d="M5.99232 30.4891C5.99232 28.291 7.76547 26.507 9.95025 26.507H12.1139L12.2116 26.1672L42.7589 9.33653L45.0941 10.0214C45.1601 10.2338 45.1838 10.4568 45.2973 10.6612C46.205 12.3337 48.2842 12.9416 49.9465 12.0284C50.1471 11.9169 50.2843 11.7443 50.4505 11.5983L52.791 12.2885L58.1131 22.0631L57.4297 24.4152C57.2212 24.4789 56.9996 24.5028 56.7964 24.6143C56.0233 25.039 55.5088 25.7345 55.237 26.507H65.3455L58.5221 13.969H58.5247L50.9175 0L37.0278 7.65081H37.0305L13.8871 20.4013L0 28.0521L5.99232 39.0611V30.4891Z" fill="#999999"/>
<path d="M29.3706 21.2136C27.0723 22.4772 25.4179 24.3939 24.4891 26.5071H43.5743C43.4213 25.6974 43.1917 24.9036 42.7854 24.1577C40.3921 19.7668 34.3893 18.4501 29.3706 21.2136Z" fill="#999999"/>
</svg>
