<svg width="68" height="61" viewBox="0 0 68 61" fill="none" xmlns="http://www.w3.org/2000/svg">
<path d="M65.4039 8.92558L23.7572 0.0711324C21.9952 -0.303375 20.2487 0.838677 19.8759 2.60885L19.0847 7.71711L67.1381 17.9331L67.9293 12.8248C68.3021 11.0553 67.1659 9.3002 65.4039 8.92558Z" fill="#999999"/>
<path d="M47.8903 19.0164C47.4038 17.2565 45.5731 16.2163 43.8219 16.7042L35.9158 18.9092L17.2777 14.9464L15.2279 24.6763L2.42071 28.2475C0.669586 28.7355 -0.365866 30.5747 0.119804 32.334L7.33741 58.4634C7.82386 60.2226 9.65465 61.2635 11.4058 60.775L52.807 49.2324C54.5581 48.7437 55.5935 46.9052 55.1079 45.1452L53.869 40.6596L58.5122 41.6458C60.2742 42.021 62.0207 40.879 62.3935 39.1088L65.3312 25.1625L48.6059 21.6068L47.8903 19.0164ZM52.6715 32.2964L53.6954 27.4349C53.8492 26.7069 54.5676 26.2374 55.2921 26.3912L60.1312 27.4205C60.8565 27.575 61.3238 28.296 61.1708 29.0245L60.1469 33.8861C59.9931 34.614 59.2748 35.0842 58.5502 34.9298L53.7111 33.9012C52.9852 33.7461 52.5177 33.0243 52.6715 32.2964ZM3.14116 30.855L14.5985 27.6618L41.6319 20.1251L44.5409 19.3131C44.594 19.2987 44.647 19.2919 44.6988 19.2919C44.9321 19.2919 45.2111 19.4457 45.2927 19.7403L45.6342 20.976L46.7044 24.8499L4.12761 36.7199L2.71593 31.6109C2.62749 31.2903 2.82216 30.9438 3.14116 30.855ZM52.5116 45.8682C52.5661 46.0665 52.509 46.2304 52.4511 46.333C52.394 46.4355 52.2837 46.5696 52.0864 46.6242L10.686 58.1667C10.6337 58.1811 10.5799 58.1886 10.5281 58.1886C10.2948 58.1886 10.0158 58.0341 9.93421 57.7395L5.7244 42.4987L48.3011 30.6281L50.8979 40.0279L52.5116 45.8682Z" fill="#999999"/>
<path d="M17.3755 46.9111C17.1769 46.1935 16.4312 45.7697 15.7169 45.9686L10.8818 47.3171C10.1681 47.516 9.7457 48.2658 9.94437 48.9835L11.2859 53.8402C11.4846 54.5579 12.2303 54.9816 12.9446 54.782L17.7796 53.4342C18.494 53.2353 18.9158 52.4855 18.7178 51.7679L17.3755 46.9111Z" fill="#999999"/>
</svg>
