<svg width="56" height="76" viewBox="0 0 56 76" fill="none" xmlns="http://www.w3.org/2000/svg">
<path d="M45.3255 22.4206C34.6583 28.9957 26.9696 37.2997 23.8479 40.9902L15.8326 34.6764C15.6204 34.5229 11.2204 38.4508 11.3372 38.5731L25.9346 53.4954C26.042 53.6177 26.1898 53.6728 26.3496 53.6728C26.3782 53.6728 26.4235 53.6728 26.4617 53.6632C26.6525 53.6201 26.8146 53.4906 26.8862 53.2987C29.2376 47.2536 37.0025 34.5973 46.9185 25.418C47.095 25.2502 47.157 24.9864 47.0593 24.7586C47.0569 24.7562 45.4734 22.3295 45.3255 22.4206Z" fill="#999999"/>
<path d="M54.8982 9.21285C32.7958 9.21285 29.0565 0.776929 29.0231 0.697798C28.8609 0.285354 28.4603 0.00959172 28.0072 0C28.0072 0 27.9976 0 27.9881 0C27.5493 0 27.1439 0.275762 26.9674 0.678614C26.9411 0.767338 23.1207 9.21285 1.10178 9.21285C0.4865 9.21285 0 9.71402 0 10.3183V48.1193C0 63.5931 26.4332 75.4149 27.5517 75.9113C27.6995 75.976 27.8402 76 28 76C28.1455 76 28.3029 75.976 28.4436 75.9113C29.5716 75.4149 56 63.5931 56 48.1193V10.3183C55.9952 9.71402 55.5063 9.21285 54.8982 9.21285ZM49.9187 45.9204C49.9187 58.0275 29.2234 67.2907 28.3434 67.6744C28.2361 67.7295 28.1097 67.7487 27.9976 67.7487C27.876 67.7487 27.7639 67.7295 27.6494 67.6744C26.779 67.2907 6.07648 58.0275 6.07648 45.9204V16.3323C6.07648 15.8551 6.46044 15.4619 6.93978 15.4619C24.1795 15.4619 27.1677 8.85316 27.1963 8.78841C27.3323 8.46949 27.647 8.25368 27.9928 8.25368C27.9976 8.25368 28.0072 8.25368 28.0072 8.25368C28.3601 8.25847 28.6725 8.47429 28.7989 8.8028C28.8275 8.86275 31.7561 15.4619 49.0554 15.4619C49.5348 15.4619 49.9164 15.8551 49.9164 16.3323L49.9187 45.9204Z" fill="#999999"/>
</svg>
