<svg width="68" height="48" viewBox="0 0 68 48" fill="none" xmlns="http://www.w3.org/2000/svg">
<path d="M3.35558 32.9672H36.1556C36.6889 32.9672 37.1223 32.532 37.1223 31.9963V2.92397C37.1223 1.30574 35.8223 0 34.2111 0H5.30003C3.68892 0 2.38892 1.30574 2.38892 2.92397V31.9851C2.38892 32.5208 2.82225 32.9672 3.35558 32.9672ZM5.66669 5.41269C5.66669 4.08463 6.74447 3.00209 8.06669 3.00209H31.9334C33.2556 3.00209 34.3334 4.08463 34.3334 5.41269V29.396C34.3334 29.8424 33.9778 30.1995 33.5334 30.1995H6.46669C6.02225 30.1995 5.66669 29.8424 5.66669 29.396V5.41269Z" fill="#999999"/>
<path d="M14.5 35.88H0.966667C0.433333 35.88 0 36.3153 0 36.8509V39.8084C0 40.3441 0.433333 40.7793 0.966667 40.7793H11.8111C12.1 38.8375 13.0778 37.1076 14.5 35.88Z" fill="#999999"/>
<path d="M19.7001 35.88C16.3667 35.88 13.6667 38.5919 13.6667 41.94C13.6667 45.2881 16.3667 48 19.7001 48C23.0334 48 25.7334 45.2881 25.7334 41.94C25.7334 38.5919 23.0334 35.88 19.7001 35.88ZM19.7001 44.9756C18.0334 44.9756 16.6779 43.614 16.6779 41.94C16.6779 40.266 18.0334 38.9044 19.7001 38.9044C21.3667 38.9044 22.7223 40.266 22.7223 41.94C22.7223 43.614 21.3667 44.9756 19.7001 44.9756Z" fill="#999999"/>
<path d="M51.289 35.88C47.9556 35.88 45.2556 38.5919 45.2556 41.94C45.2556 45.2881 47.9556 48 51.289 48C54.6223 48 57.3223 45.2881 57.3223 41.94C57.3223 38.5919 54.6223 35.88 51.289 35.88ZM51.289 44.9756C49.6223 44.9756 48.2667 43.614 48.2667 41.94C48.2667 40.266 49.6223 38.9044 51.289 38.9044C52.9556 38.9044 54.3112 40.266 54.3112 41.94C54.3112 43.614 52.9556 44.9756 51.289 44.9756Z" fill="#999999"/>
<path d="M67.0334 35.88H64.6667V22.6329C64.6667 21.0816 64.2 19.5638 63.3334 18.2692L57.4222 9.48617C55.9778 7.34341 53.5667 6.04883 50.9889 6.04883H41.8334C40.7667 6.04883 39.8889 6.91932 39.8889 8.00186V35.88H24.8889C26.3111 37.1076 27.2889 38.8375 27.5778 40.7905H43.4C43.9667 36.9179 47.2778 33.9382 51.2889 33.9382C55.3 33.9382 58.6111 36.9179 59.1778 40.7905H67.0334C67.5667 40.7905 68 40.3553 68 39.8196V36.8621C68 36.3153 67.5667 35.88 67.0334 35.88ZM57.3667 20.0325H45.2778C44.7445 20.0325 44.3111 19.5973 44.3111 19.0616V12.3209C44.3111 11.7852 44.7445 11.3499 45.2778 11.3499H52.6445C52.9556 11.3499 53.2556 11.5062 53.4334 11.7628L58.1556 18.5036C58.6111 19.1397 58.1445 20.0325 57.3667 20.0325Z" fill="#999999"/>
</svg>
