<svg width="47" height="32" viewBox="0 0 47 32" fill="none" xmlns="http://www.w3.org/2000/svg">
<path d="M45.2446 32.0001H1.76469C1.29669 32.0001 0.847866 31.8126 0.516944 31.4788C0.186022 31.145 0.000111424 30.6922 0.000111424 30.2201V1.80012C-0.00249256 1.56638 0.0405683 1.33442 0.126835 1.11747C0.213103 0.900514 0.340887 0.702827 0.502891 0.535692C0.664896 0.368557 0.857949 0.235246 1.07103 0.143372C1.28411 0.0514976 1.51304 0.00285884 1.74475 0.000232708C1.75139 0.000159374 1.75804 0.000122707 1.76469 0.000122707H45.2446C45.4724 -0.00259863 45.6985 0.0399688 45.91 0.125394C46.1215 0.21082 46.3143 0.337431 46.4773 0.497999C46.6403 0.658566 46.7703 0.849945 46.86 1.06121C46.9496 1.27247 46.9972 1.49949 46.9999 1.72928C47.0002 1.7529 47 1.77651 46.9993 1.80012V30.2401C46.9941 30.707 46.8073 31.1531 46.479 31.4824C46.1508 31.8116 45.7075 31.9975 45.2446 32.0001V32.0001Z" fill="url(#paint0_linear)"/>
<path d="M41.2495 16.0002C41.2495 18.785 40.1529 21.4557 38.2008 23.4249C36.2487 25.394 33.6012 26.5002 30.8405 26.5002C28.0799 26.5002 25.4323 25.394 23.4802 23.4249C21.5282 21.4557 20.4315 18.785 20.4315 16.0002C20.4315 13.2155 21.5282 10.5448 23.4802 8.57562C25.4323 6.60649 28.0799 5.50024 30.8405 5.50024C33.6012 5.50024 36.2487 6.60649 38.2008 8.57562C40.1529 10.5448 41.2495 13.2155 41.2495 16.0002Z" fill="#FF9900"/>
<path d="M16.7735 5.47022C15.0863 5.4786 13.4265 5.90094 11.9373 6.7008C10.4481 7.50066 9.17414 8.65402 8.22541 10.0614C7.27669 11.4687 6.68166 13.0878 6.49168 14.7789C6.3017 16.47 6.52246 18.1823 7.13492 19.7681C7.74739 21.3539 8.73315 22.7656 10.0072 23.8813C11.2812 24.9971 12.8052 25.7834 14.4477 26.1724C16.0902 26.5614 17.8019 26.5414 19.435 26.1142C21.0682 25.687 22.5737 24.8654 23.8218 23.7202C24.1787 23.3602 24.5257 23.0102 24.8826 22.5902H22.7215C22.4478 22.2479 22.1929 21.8907 21.9581 21.5202H25.6955C25.9253 21.163 26.1211 20.7846 26.2804 20.3902H21.3931C21.2223 20.0274 21.0862 19.6491 20.9866 19.2602H26.7463C27.0873 18.2077 27.2613 17.1075 27.2618 16.0002C27.2729 15.2433 27.193 14.4878 27.0239 13.7502H20.6297C20.701 13.3667 20.8004 12.9889 20.9271 12.6202H26.6868C26.5675 12.2294 26.4115 11.8511 26.2209 11.4902H21.3336C21.5052 11.1017 21.7006 10.7243 21.9185 10.3602H25.6162C25.3757 9.95964 25.1004 9.58148 24.7934 9.23022H22.7215C23.0448 8.84431 23.3996 8.48639 23.7822 8.16022C21.8741 6.38353 19.3702 5.40106 16.7735 5.41022V5.47022Z" fill="#CC0000"/>
<path d="M40.1889 21.4702C40.2212 21.4661 40.254 21.4694 40.2849 21.4798C40.3158 21.4902 40.3439 21.5074 40.3674 21.5302C40.3981 21.5325 40.4271 21.5459 40.4489 21.5679C40.4708 21.5899 40.484 21.6191 40.4863 21.6502C40.5249 21.7021 40.5458 21.7653 40.5458 21.8302C40.5458 21.8951 40.5249 21.9583 40.4863 22.0102C40.4754 22.0372 40.4592 22.0616 40.4388 22.0822C40.4183 22.1028 40.3941 22.1191 40.3674 22.1302C40.3079 22.1302 40.2484 22.1902 40.1889 22.1902C40.1275 22.1864 40.068 22.167 40.016 22.1338C39.964 22.1006 39.9212 22.0546 39.8915 22.0002C39.8529 21.9483 39.832 21.8851 39.832 21.8202C39.832 21.7553 39.8529 21.6921 39.8915 21.6402C39.9025 21.6133 39.9186 21.5888 39.9391 21.5682C39.9595 21.5476 39.9838 21.5313 40.0105 21.5202C40.07 21.5202 40.1294 21.4602 40.1889 21.4602V21.4702ZM40.1889 21.5202C40.1294 21.5202 40.07 21.5202 40.07 21.5802C40.0432 21.5913 40.019 21.6076 39.9985 21.6282C39.9781 21.6488 39.962 21.6733 39.951 21.7002C39.9447 21.7457 39.9238 21.7878 39.8915 21.8202C39.8915 21.8802 39.8915 21.9402 39.951 21.9402C39.962 21.9672 39.9781 21.9916 39.9985 22.0122C40.019 22.0328 40.0432 22.0491 40.07 22.0602C40.115 22.0665 40.1568 22.0876 40.1889 22.1202C40.2484 22.1202 40.3079 22.1202 40.3079 22.0602C40.3346 22.0491 40.3589 22.0328 40.3793 22.0122C40.3997 21.9916 40.4159 21.9672 40.4268 21.9402C40.4331 21.8947 40.454 21.8526 40.4863 21.8202C40.4863 21.7602 40.4863 21.7002 40.4268 21.7002C40.4159 21.6733 40.3997 21.6488 40.3793 21.6282C40.3589 21.6076 40.3346 21.5913 40.3079 21.5802C40.2758 21.5476 40.234 21.5265 40.1889 21.5202ZM40.07 22.0002V21.6502H40.3079C40.3237 21.6502 40.3388 21.6565 40.3499 21.6678C40.3611 21.679 40.3674 21.6943 40.3674 21.7102V21.8302L40.3079 21.8902H40.3674L40.4268 21.9502L40.4863 22.0002H40.4268L40.3674 21.9402C40.3674 21.9243 40.3611 21.909 40.3499 21.8978C40.3388 21.8865 40.3237 21.8802 40.3079 21.8802H40.1889V22.0602L40.07 22.0002ZM40.1294 21.8202H40.2484V21.7702H40.1294V21.8302" fill="#FCB340"/>
<path d="M20.3028 19.0002L20.4218 18.0502C20.3239 18.0761 20.2246 18.0962 20.1244 18.1102C19.7476 18.1502 19.7476 17.9102 19.7476 17.7902L20.1045 15.8902H20.6894L20.739 14.8302H20.2532L20.3722 14.1802H19.1925C19.1925 14.1802 18.5481 17.8502 18.5481 18.3302C18.5298 18.454 18.5394 18.5805 18.5763 18.7C18.6133 18.8196 18.6765 18.9291 18.7614 19.0205C18.8463 19.1119 18.9505 19.1827 19.0664 19.2277C19.1823 19.2727 19.3067 19.2906 19.4304 19.2802C19.8963 19.1602 20.1937 19.0002 20.3028 19.0002Z" fill="#000066"/>
<path d="M20.6595 17.2002C20.6194 17.4722 20.643 17.7499 20.7284 18.011C20.8139 18.2722 20.9588 18.5095 21.1515 18.7039C21.3443 18.8984 21.5795 19.0446 21.8384 19.1307C22.0973 19.2169 22.3726 19.2407 22.6422 19.2002C23.0473 19.2052 23.4501 19.1375 23.8318 19.0002L24.0102 17.9302C23.619 18.0959 23.204 18.1972 22.781 18.2302C21.6013 18.2302 21.7896 17.3402 21.7896 17.3402H24.0796C24.1369 17.0093 24.1766 16.6755 24.1986 16.3402C24.2116 16.1188 24.1779 15.8971 24.0998 15.6898C24.0217 15.4825 23.9009 15.2942 23.7455 15.1373C23.59 14.9805 23.4033 14.8587 23.1978 14.7799C22.9922 14.7011 22.7725 14.6671 22.553 14.6802C21.4823 14.6502 20.6595 15.8402 20.6595 17.2002ZM22.6422 15.6002C22.7308 15.6069 22.8169 15.6336 22.894 15.6783C22.971 15.723 23.0372 15.7845 23.0876 15.8584C23.138 15.9322 23.1714 16.0166 23.1852 16.1051C23.1991 16.1937 23.193 16.2843 23.1676 16.3702H21.8888C21.899 16.1777 21.9762 15.995 22.1067 15.8542C22.2373 15.7134 22.4128 15.6235 22.6025 15.6002H22.6422Z" fill="#000066"/>
<path d="M29.6609 19.0002L29.8394 17.7602C29.5491 17.9242 29.2286 18.0263 28.8976 18.0602C28.7404 18.0625 28.5845 18.0311 28.4402 17.9681C28.2959 17.9051 28.1665 17.8119 28.0606 17.6947C27.9547 17.5775 27.8747 17.4389 27.8259 17.2881C27.7771 17.1374 27.7605 16.9779 27.7774 16.8202C27.7774 15.5202 28.4813 14.7502 29.1851 14.7502C29.537 14.7538 29.8807 14.8578 30.1764 15.0502L30.3549 13.8602C30.0288 13.6169 29.6396 13.4744 29.2347 13.4502C27.4701 13.4502 26.5283 14.6402 26.5283 16.7702C26.4871 17.0658 26.5094 17.3669 26.5937 17.653C26.678 17.9392 26.8225 18.2037 27.0171 18.4285C27.2118 18.6533 27.4522 18.8333 27.7219 18.9561C27.9917 19.0789 28.2845 19.1417 28.5804 19.1402C28.9434 19.1195 29.3045 19.0728 29.6609 19.0002Z" fill="#000066"/>
<path d="M14.1961 14.6502C13.7363 14.6507 13.2801 14.7319 12.8479 14.8902L12.6695 15.8402C13.0668 15.713 13.482 15.6522 13.8987 15.6602C14.3052 15.6602 14.6026 15.7202 14.6026 16.0702C14.6043 16.1733 14.584 16.2756 14.5431 16.3702H14.0772C13.0165 16.3702 12.0945 16.7802 12.0945 18.0302C12.0647 18.1825 12.0704 18.3398 12.1112 18.4895C12.1521 18.6392 12.2269 18.7773 12.3299 18.8927C12.4328 19.0082 12.561 19.0979 12.7042 19.1548C12.8475 19.2116 13.0019 19.234 13.1552 19.2202C13.3648 19.2303 13.574 19.1934 13.7677 19.1121C13.9614 19.0309 14.1348 18.9072 14.2754 18.7502V19.1602H15.2668L15.6732 16.0802C15.6859 15.8838 15.6558 15.6871 15.5852 15.5038C15.5146 15.3204 15.4051 15.1548 15.2644 15.0186C15.1237 14.8824 14.9552 14.7788 14.7707 14.7152C14.5862 14.6515 14.3901 14.6293 14.1961 14.6502ZM14.3746 17.1402C14.3746 17.3202 14.3151 18.2102 13.6707 18.2102C13.6158 18.2166 13.5602 18.2103 13.508 18.192C13.4558 18.1737 13.4084 18.1437 13.3693 18.1042C13.3302 18.0648 13.3005 18.017 13.2823 17.9643C13.2641 17.9117 13.2579 17.8555 13.2643 17.8002C13.2643 17.5002 13.4427 17.1502 14.2556 17.1502H14.3746V17.1402Z" fill="#000066"/>
<path d="M16.7736 19.1602C16.9805 19.1963 17.1927 19.1868 17.3957 19.1324C17.5986 19.0781 17.7875 18.9801 17.9494 18.8453C18.1114 18.7104 18.2425 18.5418 18.3338 18.3511C18.4252 18.1604 18.4746 17.952 18.4787 17.7402C18.4787 16.3802 17.1305 16.6102 17.1305 16.0802C17.1305 15.7802 17.3684 15.7202 17.7153 15.7202C17.8938 15.7202 18.4787 15.7802 18.4787 15.7802L18.5976 14.7802C18.2688 14.739 17.9377 14.719 17.6063 14.7202C17.398 14.6876 17.1852 14.7018 16.983 14.762C16.7809 14.8222 16.5944 14.9268 16.4371 15.0683C16.2798 15.2098 16.1555 15.3847 16.0731 15.5804C15.9907 15.7761 15.9523 15.9878 15.9607 16.2002C15.9607 17.5002 17.3684 17.3302 17.3684 17.9202C17.3684 18.2802 16.9619 18.3302 16.6645 18.3302C16.3267 18.3233 15.9922 18.2626 15.6732 18.1502L15.4948 19.1502C15.5443 19.0002 15.8417 19.1602 16.7736 19.1602Z" fill="#000066"/>
<path d="M38.7515 13.7603L38.583 15.2503C38.4594 15.08 38.3004 14.9389 38.1172 14.837C37.934 14.7351 37.731 14.6748 37.5223 14.6603C36.293 14.6603 35.6387 15.9003 35.6387 17.3303C35.5789 17.7541 35.6867 18.1847 35.939 18.529C36.1913 18.8733 36.5677 19.1036 36.9869 19.1703C37.3882 19.1613 37.7697 18.9923 38.0477 18.7003L37.9882 19.1103H39.0489L39.8717 13.7803H38.7515V13.7603ZM38.2856 16.6603C38.3247 16.9536 38.2567 17.2512 38.0944 17.4977C37.9321 17.7442 37.6865 17.9228 37.4033 18.0003C36.9968 18.0003 36.8184 17.6403 36.8184 17.1103C36.8184 16.2203 37.2249 15.6903 37.7007 15.6903C38.1765 15.6903 38.2856 16.0003 38.2856 16.6703V16.6603Z" fill="#000066"/>
<path d="M8.20838 19.1002L8.85274 15.1002L8.9717 19.1002H9.73503L11.1427 15.1002L10.4984 19.1002H11.6186L12.5009 13.7702H10.6768L9.61607 17.0002L9.55659 13.7402H7.91097L7.02869 19.1002H8.20838Z" fill="#000066"/>
<path d="M25.299 19.1002C25.5964 17.2602 25.7055 15.7802 26.6473 16.1002C26.7745 15.525 26.9709 14.9675 27.2321 14.4402C27.1227 14.382 26.9975 14.361 26.8753 14.3802C26.3905 14.585 25.979 14.9338 25.6956 15.3802L25.8145 14.7302H24.8232L24.1293 19.0002L25.299 19.1002Z" fill="#000066"/>
<path d="M31.941 14.6502C31.4812 14.6507 31.025 14.7319 30.5928 14.8902L30.4144 15.8402C30.8117 15.713 31.2269 15.6522 31.6436 15.6602C32.0501 15.6602 32.3475 15.7202 32.3475 16.0702C32.3492 16.1733 32.3289 16.2756 32.288 16.3702H31.8221C30.7613 16.3702 29.8394 16.7802 29.8394 18.0302C29.8095 18.1825 29.8152 18.3398 29.8561 18.4895C29.8969 18.6392 29.9718 18.7773 30.0747 18.8927C30.1777 19.0082 30.3058 19.0979 30.4491 19.1548C30.5924 19.2116 30.7468 19.234 30.9001 19.2202C31.1097 19.2303 31.3189 19.1934 31.5126 19.1121C31.7063 19.0309 31.8797 18.9072 32.0203 18.7502V19.1602H33.0117L33.4181 16.0802C33.4308 15.8838 33.4007 15.6871 33.3301 15.5038C33.2595 15.3204 33.15 15.1548 33.0093 15.0186C32.8686 14.8824 32.7001 14.7788 32.5156 14.7152C32.331 14.6515 32.1349 14.6293 31.941 14.6502ZM32.1195 17.1402C32.1195 17.3202 32.06 18.2102 31.4156 18.2102C31.3607 18.2166 31.3051 18.2103 31.2529 18.192C31.2007 18.1737 31.1533 18.1437 31.1142 18.1042C31.0751 18.0648 31.0453 18.017 31.0272 17.9643C31.009 17.9117 31.0028 17.8555 31.0092 17.8002C31.0092 17.5002 31.1876 17.1502 32.0005 17.1502H32.1195V17.1402Z" fill="#000066"/>
<path d="M34.6178 19.1002C34.7962 17.7402 35.1432 15.8402 35.966 16.1002C36.0849 15.3902 35.966 15.3902 35.6686 15.3902H35.0539L35.1729 14.7402H34.1122L33.4083 19.0002L34.6178 19.1002Z" fill="#000066"/>
<path d="M20.5702 18.6902L20.6892 17.7402H20.4513C20.0448 17.7402 20.0448 17.5602 20.0448 17.3802L20.3422 15.3802H20.9271L21.0461 14.3102H20.5108L20.6297 13.6602H19.5095C19.5095 13.6602 18.8651 17.3302 18.8651 17.8102C18.8468 17.934 18.8564 18.0604 18.8933 18.18C18.9303 18.2995 18.9935 18.4091 19.0784 18.5005C19.1633 18.5919 19.2676 18.6627 19.3834 18.7077C19.4993 18.7526 19.6237 18.7706 19.7474 18.7602C20.0233 18.7643 20.2989 18.7409 20.5702 18.6902Z" fill="white"/>
<path d="M20.9173 16.8501C20.8772 17.1221 20.9008 17.3998 20.9862 17.6609C21.0717 17.9221 21.2166 18.1594 21.4093 18.3538C21.6021 18.5483 21.8373 18.6945 22.0962 18.7806C22.3551 18.8668 22.6304 18.8906 22.9 18.8501C23.3014 18.874 23.7033 18.8127 24.0797 18.6701L24.2581 17.6001C23.8856 17.7696 23.4862 17.8712 23.0784 17.9001C21.8988 17.9001 22.0871 17.0101 22.0871 17.0101H24.3176C24.3749 16.6792 24.4146 16.3454 24.4366 16.0101C24.4569 15.7922 24.4303 15.5723 24.3587 15.3657C24.287 15.159 24.1719 14.9704 24.0213 14.8128C23.8707 14.6552 23.6881 14.5322 23.486 14.4524C23.2839 14.3725 23.0671 14.3376 22.8504 14.3501C21.7302 14.3001 20.9173 15.4901 20.9173 16.8501ZM22.9 15.3101C22.9887 15.3168 23.0747 15.3435 23.1518 15.3882C23.2289 15.4329 23.295 15.4944 23.3454 15.5683C23.3958 15.6421 23.4292 15.7265 23.443 15.815C23.4569 15.9036 23.4509 15.9942 23.4254 16.0801H22.1565C22.1582 15.8866 22.2312 15.7005 22.3613 15.5582C22.4913 15.4159 22.6692 15.3275 22.8604 15.3101H22.9Z" fill="white"/>
<path d="M29.9086 18.6902L30.087 17.4502C29.7968 17.6142 29.4762 17.7163 29.1452 17.7502C28.988 17.7526 28.8321 17.7212 28.6878 17.6582C28.5435 17.5952 28.4142 17.502 28.3083 17.3847C28.2024 17.2675 28.1223 17.1289 28.0735 16.9782C28.0247 16.8274 28.0082 16.6679 28.025 16.5102C28.025 15.2102 28.7289 14.4402 29.4327 14.4402C29.7846 14.4438 30.1283 14.5478 30.424 14.7402L30.6521 13.5302C30.2636 13.3562 29.8471 13.2545 29.4228 13.2302C28.1341 13.2302 26.8949 14.3602 26.8949 16.4302C26.8949 17.8502 27.5393 18.7402 28.8776 18.7402C29.2219 18.7689 29.5685 18.7521 29.9086 18.6902Z" fill="white"/>
<path d="M14.5133 14.3003C14.0535 14.3009 13.5973 14.3821 13.165 14.5403L12.9866 15.4903C13.3839 15.3632 13.7991 15.3024 14.2159 15.3103C14.6223 15.3103 14.9197 15.3703 14.9197 15.7203C14.9214 15.8235 14.9011 15.9258 14.8602 16.0203H14.4042C14.1627 15.9766 13.9146 15.9867 13.6773 16.0498C13.44 16.1129 13.2192 16.2274 13.0304 16.3855C12.8416 16.5436 12.6893 16.7414 12.5841 16.965C12.4789 17.1887 12.4235 17.4328 12.4215 17.6803C12.3917 17.8327 12.3974 17.9899 12.4382 18.1397C12.4791 18.2894 12.554 18.4275 12.6569 18.5429C12.7598 18.6584 12.888 18.7481 13.0313 18.8049C13.1745 18.8618 13.3289 18.8842 13.4823 18.8703C13.6971 18.877 13.9105 18.8325 14.1052 18.7404C14.2998 18.6483 14.4702 18.5113 14.6025 18.3403L14.543 18.7503H15.5343L15.9408 15.6703C15.9503 15.4818 15.9193 15.2935 15.85 15.1182C15.7806 14.9428 15.6745 14.7847 15.5389 14.6546C15.4034 14.5245 15.2415 14.4255 15.0645 14.3643C14.8875 14.3032 14.6994 14.2814 14.5133 14.3003ZM14.7908 16.7903C14.8138 17.0317 14.7491 17.2733 14.6087 17.4702C14.4683 17.667 14.2617 17.8057 14.0275 17.8603C13.9726 17.8667 13.917 17.8605 13.8648 17.8422C13.8126 17.8238 13.7651 17.7938 13.7261 17.7544C13.687 17.715 13.6572 17.6672 13.639 17.6145C13.6209 17.5618 13.6147 17.5057 13.6211 17.4503C13.6211 17.1503 13.7995 16.8003 14.6124 16.8003H14.7908V16.7903Z" fill="white"/>
<path d="M17.0411 18.8103C17.2496 18.8481 17.4637 18.8397 17.6686 18.7855C17.8735 18.7313 18.0642 18.6327 18.2274 18.4966C18.3907 18.3604 18.5225 18.1901 18.6138 17.9973C18.7052 17.8045 18.7537 17.594 18.7561 17.3803C18.7561 16.0203 17.4079 16.2503 17.4079 15.7203C17.4079 15.4203 17.6458 15.3603 17.9928 15.3603C18.1712 15.3603 18.7561 15.4203 18.7561 15.4203L18.8751 14.4203C18.5462 14.3792 18.2151 14.3591 17.8838 14.3603C17.6755 14.3277 17.4626 14.342 17.2605 14.4022C17.0583 14.4623 16.8719 14.5669 16.7146 14.7084C16.5572 14.8499 16.4329 15.0248 16.3505 15.2205C16.2682 15.4162 16.2298 15.6279 16.2381 15.8403C16.2381 17.1403 17.6458 16.9703 17.6458 17.5603C17.6458 17.9203 17.2394 17.9703 16.942 17.9703C16.6042 17.9635 16.2696 17.9027 15.9507 17.7903L15.7722 18.7903C16.1929 18.7198 16.6228 18.7266 17.0411 18.8103Z" fill="white"/>
<path d="M39.0685 13.4102L38.8305 14.8902C38.7069 14.7199 38.548 14.5789 38.3648 14.4769C38.1816 14.375 37.9785 14.3147 37.7698 14.3002C36.7785 14.3002 35.8863 15.5402 35.8863 16.9702C35.8264 17.394 35.9343 17.8246 36.1866 18.1689C36.4388 18.5132 36.8152 18.7435 37.2345 18.8102C37.6358 18.8012 38.0172 18.6322 38.2952 18.3402L38.2357 18.7502H39.3559L40.1788 13.4202H39.0685V13.4102ZM38.5827 16.3202C38.627 16.6166 38.5615 16.9191 38.3988 17.1699C38.236 17.4208 37.9874 17.6024 37.7004 17.6802C37.294 17.6802 37.1155 17.3202 37.1155 16.7902C37.1155 15.9002 37.522 15.3702 37.9978 15.3702C38.1961 15.4112 38.3702 15.53 38.4816 15.7005C38.5931 15.871 38.6329 16.0791 38.5922 16.2792L38.5827 16.3202Z" fill="white"/>
<path d="M8.46612 18.7502L9.11049 14.7502L9.22945 18.7502H9.99278L11.4005 14.7502L10.7561 18.7502H11.8763L12.7586 13.4202H10.994L10.0027 16.6802L9.9333 13.4102H8.28768L7.4054 18.7402H8.46612V18.7502Z" fill="white"/>
<path d="M25.5566 18.7501C25.854 16.9101 25.9631 15.3701 26.7363 15.6701C26.8091 15.2193 26.946 14.7815 27.1428 14.3701H26.9147C26.7273 14.4212 26.5523 14.5106 26.4005 14.6327C26.2488 14.7549 26.1235 14.9071 26.0325 15.0801L26.1514 14.4301H25.0907L24.3868 18.7601H25.5665L25.5566 18.7501Z" fill="white"/>
<path d="M32.4959 14.3002C32.0361 14.3008 31.5799 14.382 31.1477 14.5402L30.9693 15.4902C31.3666 15.3631 31.7818 15.3023 32.1985 15.3102C32.605 15.3102 32.9024 15.3702 32.9024 15.7202C32.9041 15.8234 32.8838 15.9257 32.8429 16.0202H32.377C32.1355 15.9765 31.8874 15.9866 31.6501 16.0497C31.4128 16.1127 31.192 16.2273 31.0032 16.3854C30.8144 16.5435 30.6621 16.7413 30.5569 16.9649C30.4517 17.1886 30.3962 17.4327 30.3943 17.6802C30.3645 17.8326 30.3702 17.9898 30.411 18.1396C30.4519 18.2893 30.5267 18.4273 30.6297 18.5428C30.7326 18.6583 30.8608 18.748 31.004 18.8048C31.1473 18.8617 31.3017 18.8841 31.455 18.8702C31.6806 18.8856 31.9064 18.8443 32.1123 18.75C32.3181 18.6558 32.4976 18.5116 32.6347 18.3302L32.5753 18.7402H33.5666L33.973 15.6602C33.9859 15.4668 33.9553 15.273 33.8837 15.0932C33.812 14.9133 33.7011 14.7521 33.5592 14.6214C33.4173 14.4907 33.248 14.394 33.0639 14.3384C32.8798 14.2828 32.6857 14.2697 32.4959 14.3002ZM32.7339 16.7902C32.7569 17.0316 32.6922 17.2732 32.5517 17.4701C32.4113 17.6669 32.2048 17.8056 31.9705 17.8602C31.9156 17.8666 31.86 17.8604 31.8078 17.8421C31.7556 17.8237 31.7082 17.7937 31.6691 17.7543C31.63 17.7149 31.6003 17.6671 31.5821 17.6144C31.5639 17.5617 31.5578 17.5056 31.5641 17.4502C31.5641 17.1502 31.7425 16.8002 32.5554 16.8002H32.7339V16.7902Z" fill="white"/>
<path d="M34.8951 18.7501C35.1925 16.9101 35.3016 15.3701 36.0748 15.6701C36.1477 15.2193 36.2845 14.7815 36.4813 14.3701H36.2434C36.0559 14.4212 35.8809 14.5106 35.7291 14.6327C35.5774 14.7549 35.4521 14.9071 35.3611 15.0801L35.48 14.4301H34.4193L33.7155 18.7601H34.8951V18.7501Z" fill="white"/>
<path d="M40.1888 18.0903C40.2211 18.0863 40.2539 18.0895 40.2848 18.0999C40.3156 18.1103 40.3438 18.1275 40.3672 18.1503C40.398 18.1526 40.427 18.166 40.4488 18.188C40.4706 18.2101 40.4839 18.2393 40.4862 18.2703C40.4862 18.3303 40.5457 18.3303 40.5457 18.3903C40.5411 18.4509 40.5225 18.5095 40.4916 18.5616C40.4606 18.6136 40.418 18.6577 40.3672 18.6903C40.3158 18.7293 40.2531 18.7503 40.1888 18.7503C40.1244 18.7503 40.0618 18.7293 40.0103 18.6903C39.9836 18.6793 39.9594 18.663 39.9389 18.6424C39.9185 18.6218 39.9024 18.5973 39.8914 18.5703C39.8528 18.5184 39.8319 18.4552 39.8319 18.3903C39.8319 18.3254 39.8528 18.2622 39.8914 18.2103C39.9024 18.1834 39.9185 18.1589 39.9389 18.1383C39.9594 18.1177 39.9836 18.1014 40.0103 18.0903H40.1888ZM40.1888 18.1503C40.1293 18.1503 40.0698 18.1503 40.0698 18.2103C40.0431 18.2214 40.0188 18.2377 39.9984 18.2583C39.978 18.2789 39.9618 18.3034 39.9509 18.3303C39.9446 18.3758 39.9237 18.418 39.8914 18.4503C39.8914 18.5103 39.8914 18.5703 39.9509 18.5703C39.9618 18.5973 39.978 18.6218 39.9984 18.6424C40.0188 18.663 40.0431 18.6793 40.0698 18.6903C40.1149 18.6967 40.1567 18.7177 40.1888 18.7503C40.2483 18.7503 40.3078 18.7503 40.3078 18.6903C40.3345 18.6793 40.3587 18.663 40.3792 18.6424C40.3996 18.6218 40.4157 18.5973 40.4267 18.5703C40.433 18.5248 40.4539 18.4827 40.4862 18.4503C40.4862 18.3903 40.4862 18.3303 40.4267 18.3303C40.4157 18.3034 40.3996 18.2789 40.3792 18.2583C40.3587 18.2377 40.3345 18.2214 40.3078 18.2103C40.3078 18.1503 40.2483 18.1503 40.1888 18.1503ZM40.0103 18.6203V18.2703H40.2483C40.264 18.2703 40.2792 18.2766 40.2903 18.2879C40.3015 18.2991 40.3078 18.3144 40.3078 18.3303V18.4503L40.2483 18.5103H40.3078L40.3672 18.5703L40.4267 18.6303H40.3672L40.3078 18.5703C40.3078 18.5544 40.3015 18.5391 40.2903 18.5279C40.2792 18.5166 40.264 18.5103 40.2483 18.5103H40.1293V18.6903L40.0103 18.6303V18.6203ZM40.0698 18.3903H40.1888V18.3303H40.0698V18.3903Z" fill="white"/>
<defs>
<linearGradient id="paint0_linear" x1="23.5" y1="2.70732e-06" x2="23.5" y2="32.0001" gradientUnits="userSpaceOnUse">
<stop stop-color="#0259AA"/>
<stop offset="1" stop-color="#013C86"/>
</linearGradient>
</defs>
</svg>
