<svg width="47" height="32" viewBox="0 0 47 32" fill="none" xmlns="http://www.w3.org/2000/svg">
<path d="M45.2375 32H1.7625C1.29506 32 0.846757 31.8127 0.516224 31.4793C0.185691 31.1459 0 30.6937 0 30.2222V1.77778C0 1.30628 0.185691 0.854097 0.516224 0.520699C0.846757 0.187301 1.29506 0 1.7625 0H45.2375C45.7049 0 46.1532 0.187301 46.4838 0.520699C46.8143 0.854097 47 1.30628 47 1.77778V30.2222C47 30.6937 46.8143 31.1459 46.4838 31.4793C46.1532 31.8127 45.7049 32 45.2375 32V32Z" fill="url(#paint0_linear)"/>
<path d="M8.8713 11.6739H5.75755C5.65691 11.6688 5.55816 11.7029 5.48165 11.769C5.40515 11.8352 5.3567 11.9284 5.3463 12.0295L4.11255 20.0295C4.10588 20.1 4.12669 20.1703 4.17055 20.2256C4.21441 20.2809 4.27789 20.3169 4.34755 20.3258H5.87505C5.97569 20.3309 6.07444 20.2968 6.15094 20.2307C6.22745 20.1645 6.2759 20.0713 6.2863 19.9702L6.6388 17.8369C6.65634 17.7389 6.70682 17.6501 6.78174 17.5853C6.85665 17.5206 6.95141 17.4838 7.05005 17.4813H8.0488C10.105 17.4813 11.28 16.4739 11.5738 14.5184C11.6563 14.1727 11.6623 13.8129 11.5912 13.4646C11.5201 13.1164 11.3738 12.7882 11.1625 12.5036C10.8616 12.2081 10.5014 11.9812 10.1061 11.8381C9.71089 11.6949 9.28981 11.639 8.8713 11.6739ZM9.2238 14.6369C9.04755 15.7628 8.22505 15.7628 7.40255 15.7628H6.93255L7.28505 13.6887C7.28917 13.6272 7.31526 13.5693 7.35846 13.5258C7.40167 13.4822 7.45908 13.4559 7.52005 13.4517H7.75505C8.22626 13.3796 8.7073 13.4851 9.1063 13.748C9.19098 13.8777 9.24552 14.025 9.26587 14.1789C9.28621 14.3328 9.27183 14.4894 9.2238 14.6369Z" fill="#253B80"/>
<path d="M18.0949 14.5779H16.6261C16.5652 14.5821 16.5078 14.6084 16.4645 14.652C16.4213 14.6956 16.3953 14.7535 16.3911 14.815L16.3324 15.2298L16.2149 15.052C15.9211 14.5779 15.1574 14.4001 14.4524 14.4001C13.6322 14.4101 12.8442 14.7233 12.2377 15.2803C11.6313 15.8374 11.2487 16.5996 11.1624 17.4224C11.0918 17.8237 11.1022 18.2352 11.1931 18.6323C11.2839 19.0294 11.4533 19.404 11.6911 19.7335C11.9296 19.9928 12.2215 20.1961 12.5463 20.3292C12.8712 20.4623 13.221 20.5219 13.5711 20.5038C14.337 20.5054 15.0738 20.2081 15.6274 19.6742L15.5686 20.089C15.562 20.1595 15.5828 20.2299 15.6266 20.2852C15.6705 20.3405 15.734 20.3764 15.8036 20.3853H17.1549C17.2555 20.3904 17.3543 20.3564 17.4308 20.2902C17.5073 20.2241 17.5557 20.1309 17.5661 20.0298L18.3886 14.9335C18.3963 14.8901 18.3946 14.8455 18.3834 14.8028C18.3722 14.7602 18.3519 14.7205 18.3239 14.6867C18.2959 14.6528 18.2609 14.6255 18.2213 14.6067C18.1818 14.5879 18.1386 14.5781 18.0949 14.5779ZM16.0386 17.4816C15.9817 17.8794 15.7836 18.2429 15.481 18.5045C15.1785 18.7661 14.7921 18.908 14.3936 18.9039C14.2067 18.9174 14.0192 18.887 13.8458 18.8151C13.6725 18.7431 13.5181 18.6315 13.3949 18.489C13.2794 18.3402 13.1983 18.1671 13.1576 17.9825C13.117 17.798 13.1177 17.6066 13.1599 17.4224C13.2168 17.0246 13.4149 16.6611 13.7175 16.3995C14.02 16.1379 14.4064 15.996 14.8049 16.0001C14.9918 15.9866 15.1794 16.017 15.3527 16.0889C15.526 16.1609 15.6804 16.2725 15.8036 16.415C15.9159 16.5656 15.995 16.7387 16.0356 16.9226C16.0761 17.1066 16.0771 17.2972 16.0386 17.4816Z" fill="#253B80"/>
<path d="M26.0262 14.5778H24.5575C24.4888 14.5758 24.4206 14.591 24.3591 14.6221C24.2976 14.6531 24.2447 14.6989 24.205 14.7556L22.1487 17.7778L21.2675 14.8741C21.2374 14.7881 21.1817 14.7136 21.1082 14.6606C21.0346 14.6076 20.9466 14.5787 20.8562 14.5778H19.3875C19.3459 14.5787 19.3052 14.5898 19.2688 14.61C19.2323 14.6302 19.2012 14.659 19.1782 14.6938C19.1551 14.7287 19.1407 14.7687 19.1363 14.8104C19.1318 14.8521 19.1374 14.8943 19.1525 14.9334L20.7975 19.7926L19.27 21.9852C19.2425 22.0264 19.2271 22.0746 19.2253 22.1242C19.2235 22.1739 19.2355 22.223 19.26 22.2661C19.2844 22.3092 19.3203 22.3446 19.3636 22.3683C19.4069 22.3919 19.4558 22.4029 19.505 22.4H20.9737C21.0425 22.402 21.1106 22.3868 21.1721 22.3558C21.2336 22.3248 21.2866 22.2789 21.3262 22.2223L26.2612 15.0519C26.2805 15.0055 26.2896 14.9554 26.2879 14.9051C26.2863 14.8548 26.2739 14.8055 26.2515 14.7605C26.2292 14.7155 26.1976 14.6758 26.1587 14.6443C26.1198 14.6128 26.0746 14.5901 26.0262 14.5778Z" fill="#253B80"/>
<path d="M30.9025 11.674H27.7888C27.6882 11.6689 27.5894 11.703 27.5129 11.7691C27.4364 11.8353 27.3879 11.9285 27.3775 12.0296L26.1438 20.0296C26.1371 20.1001 26.1579 20.1704 26.2018 20.2257C26.2457 20.281 26.3091 20.317 26.3788 20.3259H27.965C28.0349 20.3326 28.1047 20.3116 28.1595 20.2674C28.2144 20.2231 28.25 20.1591 28.2588 20.0888L28.6113 17.837C28.6288 17.739 28.6793 17.6502 28.7542 17.5854C28.8291 17.5207 28.9239 17.4839 29.0225 17.4814H30.0213C32.0775 17.4814 33.2525 16.474 33.5463 14.5185C33.6288 14.1728 33.6348 13.813 33.5637 13.4647C33.4926 13.1165 33.3463 12.7883 33.135 12.5037C32.8498 12.2034 32.5005 11.9727 32.1137 11.829C31.7269 11.6852 31.3127 11.6322 30.9025 11.674ZM31.255 14.637C31.0788 15.7629 30.2563 15.7629 29.4338 15.7629H28.9638L29.3163 13.6888C29.3204 13.6273 29.3465 13.5694 29.3897 13.5259C29.4329 13.4823 29.4903 13.456 29.5513 13.4518H29.7863C30.2575 13.3797 30.7386 13.4852 31.1375 13.7481C31.2222 13.8778 31.2768 14.0251 31.2971 14.179C31.3175 14.3329 31.3031 14.4895 31.255 14.637Z" fill="#179BD7"/>
<path d="M40.1261 14.5779H38.6574C38.5964 14.5821 38.539 14.6084 38.4958 14.652C38.4526 14.6956 38.4265 14.7535 38.4224 14.815L38.3636 15.2298L38.2461 15.052C37.9524 14.5779 37.1886 14.4001 36.4836 14.4001C35.6635 14.4101 34.8754 14.7233 34.269 15.2803C33.6626 15.8374 33.2799 16.5996 33.1936 17.4224C33.123 17.8237 33.1335 18.2352 33.2243 18.6323C33.3152 19.0294 33.4846 19.404 33.7224 19.7335C33.9608 19.9928 34.2527 20.1961 34.5776 20.3292C34.9024 20.4623 35.2522 20.5219 35.6024 20.5038C36.3683 20.5054 37.1051 20.2081 37.6586 19.6742L37.5999 20.0298C37.5932 20.1003 37.614 20.1706 37.6579 20.2259C37.7017 20.2812 37.7652 20.3172 37.8349 20.3261H39.1861C39.2868 20.3312 39.3855 20.2971 39.462 20.231C39.5385 20.1648 39.587 20.0716 39.5974 19.9705L40.4199 14.8742C40.4225 14.8346 40.4167 14.7949 40.4028 14.7578C40.389 14.7207 40.3674 14.6869 40.3396 14.6589C40.3118 14.6308 40.2784 14.6091 40.2415 14.5951C40.2047 14.5812 40.1654 14.5753 40.1261 14.5779ZM38.0699 17.4816C38.0216 17.8832 37.826 18.252 37.5215 18.5153C37.217 18.7785 36.8257 18.9172 36.4249 18.9039C36.2379 18.9174 36.0504 18.887 35.8771 18.8151C35.7038 18.7431 35.5494 18.6315 35.4261 18.489C35.3106 18.3402 35.2296 18.1671 35.1889 17.9825C35.1482 17.798 35.149 17.6066 35.1911 17.4224C35.248 17.0246 35.4462 16.6611 35.7487 16.3995C36.0513 16.1379 36.4377 15.996 36.8361 16.0001C37.0231 15.9866 37.2106 16.017 37.3839 16.0889C37.5572 16.1609 37.7116 16.2725 37.8349 16.415C37.9472 16.5656 38.0263 16.7387 38.0668 16.9226C38.1073 17.1066 38.1084 17.2972 38.0699 17.4816Z" fill="#179BD7"/>
<path d="M41.8887 11.9111L40.5962 20.0296C40.5895 20.1001 40.6103 20.1705 40.6542 20.2258C40.6981 20.2811 40.7615 20.317 40.8312 20.3259H42.1237C42.2243 20.331 42.3231 20.297 42.3996 20.2308C42.4761 20.1647 42.5245 20.0715 42.5349 19.9704L43.7687 11.9704C43.7754 11.8999 43.7546 11.8295 43.7107 11.7742C43.6668 11.7189 43.6033 11.683 43.5337 11.6741H42.1237C42.0627 11.6782 42.0053 11.7045 41.9621 11.7481C41.9189 11.7917 41.8928 11.8496 41.8887 11.9111Z" fill="#179BD7"/>
<defs>
<linearGradient id="paint0_linear" x1="23.5" y1="0" x2="23.5" y2="32" gradientUnits="userSpaceOnUse">
<stop stop-color="white"/>
<stop offset="0.97" stop-color="#D9D9D9"/>
<stop offset="1" stop-color="#E2E9F1"/>
</linearGradient>
</defs>
</svg>
