<svg width="47" height="32" viewBox="0 0 47 32" fill="none" xmlns="http://www.w3.org/2000/svg">
<path d="M45.2375 32H1.7625C1.29506 32 0.846757 31.8127 0.516224 31.4793C0.185691 31.1459 0 30.6937 0 30.2222V1.77778C0 1.30628 0.185691 0.854097 0.516224 0.520699C0.846757 0.187301 1.29506 0 1.7625 0H45.2375C45.7049 0 46.1532 0.187301 46.4838 0.520699C46.8143 0.854097 47 1.30628 47 1.77778V30.2222C47 30.6937 46.8143 31.1459 46.4838 31.4793C46.1532 31.8127 45.7049 32 45.2375 32Z" fill="url(#paint0_linear_3185_15376)"/>
<path d="M8.53 15.8517C8.53 15.4629 8.85 15.3134 9.38 15.3134C10.14 15.3134 11.1 15.5427 11.86 15.9514V13.6087C11.03 13.2798 10.21 13.1502 9.38 13.1502C7.35 13.1502 6 14.2069 6 15.9713C6 18.7227 9.8 18.2841 9.8 19.4704C9.8 19.929 9.4 20.0785 8.84 20.0785C8.01 20.0785 6.95 19.7396 6.11 19.281V21.6536C7.04 22.0523 7.98 22.2218 8.84 22.2218C10.92 22.2218 12.35 21.195 12.35 19.4106C12.34 16.4399 8.53 16.9682 8.53 15.8517ZM15.29 11.1564L12.85 11.6748L12.84 19.6598C12.84 21.1352 13.95 22.2218 15.43 22.2218C16.25 22.2218 16.85 22.0723 17.18 21.8928V19.8692C16.86 19.9988 15.28 20.4573 15.28 18.9819V15.443H17.18V13.3196H15.28L15.29 11.1564ZM20.29 14.0573L20.13 13.3196H17.97V22.0424H20.47V16.1308C21.06 15.3632 22.06 15.5028 22.37 15.6125V13.3196C22.05 13.2 20.88 12.9807 20.29 14.0573ZM22.98 13.3196H25.49V22.0424H22.98V13.3196ZM22.98 12.562L25.49 12.0237V10L22.98 10.5283V12.562ZM30.71 13.1502C29.73 13.1502 29.1 13.6087 28.75 13.9277L28.62 13.3097H26.42V24.9333L28.92 24.405L28.93 21.5838C29.29 21.843 29.82 22.2118 30.7 22.2118C32.49 22.2118 34.12 20.7763 34.12 17.6162C34.11 14.7252 32.46 13.1502 30.71 13.1502ZM30.11 20.0187C29.52 20.0187 29.17 19.8093 28.93 19.5502L28.92 15.8517C29.18 15.5626 29.54 15.3632 30.11 15.3632C31.02 15.3632 31.65 16.3801 31.65 17.686C31.65 19.0218 31.03 20.0187 30.11 20.0187ZM42 17.7159C42 15.1639 40.76 13.1502 38.39 13.1502C36.01 13.1502 34.57 15.1639 34.57 17.6959C34.57 20.6966 36.27 22.2118 38.71 22.2118C39.9 22.2118 40.8 21.9427 41.48 21.5639V19.5701C40.8 19.909 40.02 20.1184 39.03 20.1184C38.06 20.1184 37.2 19.7794 37.09 18.6031H41.98C41.98 18.4735 42 17.9551 42 17.7159ZM37.06 16.7688C37.06 15.6424 37.75 15.1738 38.38 15.1738C38.99 15.1738 39.64 15.6424 39.64 16.7688H37.06Z" fill="#6772E5"/>
<defs>
<linearGradient id="paint0_linear_3185_15376" x1="23.5" y1="0" x2="23.5" y2="32" gradientUnits="userSpaceOnUse">
<stop stop-color="white"/>
<stop offset="0.97" stop-color="#D9D9D9"/>
<stop offset="1" stop-color="#E2E9F1"/>
</linearGradient>
</defs>
</svg>
