<svg width="47" height="32" viewBox="0 0 47 32" fill="none" xmlns="http://www.w3.org/2000/svg">
<path d="M45.2375 32H1.7625C1.29506 32 0.846757 31.8127 0.516224 31.4793C0.185691 31.1459 0 30.6937 0 30.2222V1.77778C0 1.30628 0.185691 0.854097 0.516224 0.520699C0.846757 0.187301 1.29506 0 1.7625 0H45.2375C45.7049 0 46.1532 0.187301 46.4838 0.520699C46.8143 0.854097 47 1.30628 47 1.77778V30.2222C47 30.6937 46.8143 31.1459 46.4838 31.4793C46.1532 31.8127 45.7049 32 45.2375 32V32Z" fill="url(#paint0_linear)"/>
<path d="M29.7275 9.42212C26.4962 9.42212 24.2637 11.1406 24.205 13.6295C24.205 15.4666 25.85 16.474 27.0837 17.0666C28.3175 17.6592 28.7875 18.074 28.7875 18.6666C28.7875 19.4962 27.7887 19.911 26.8487 19.911C25.7929 19.9489 24.7439 19.7251 23.7937 19.2592L23.3825 19.0814L22.8537 21.8666C24.0148 22.3191 25.2517 22.5405 26.4962 22.5184C29.9037 22.5184 32.1362 20.7999 32.195 18.1925C32.195 16.711 31.3137 15.6443 29.4337 14.7555C28.3175 14.1629 27.6125 13.748 27.6125 13.1555C27.6125 12.5629 28.2 12.0888 29.4925 12.0888C30.3186 12.0839 31.1375 12.2451 31.9012 12.5629L32.195 12.6814L32.665 9.89619C31.7107 9.6086 30.723 9.4492 29.7275 9.42212ZM19.5637 9.65916L17.5075 22.3999H20.7387L22.795 9.65916H19.5637ZM14.805 9.65916L11.6325 18.311L11.28 16.5332C10.4575 14.3999 8.75373 12.0888 6.75623 11.1999L9.69373 22.3406H13.16L18.2712 9.65916H14.805ZM38.4812 9.65916C38.1201 9.62059 37.7565 9.70453 37.4479 9.8977C37.1394 10.0909 36.9035 10.3823 36.7775 10.7258L31.96 22.3999H35.3675C35.3675 22.3999 35.955 20.8592 36.0725 20.5036H40.2437C40.3612 20.9184 40.655 22.3999 40.655 22.3999H43.6512L41.0075 9.65916H38.4812ZM38.7162 13.0962L38.9512 14.2221C38.9512 14.2221 39.5975 17.2443 39.715 17.8962H37.0125C37.3062 17.1851 38.305 14.3406 38.305 14.3406C38.403 13.9137 38.5407 13.4971 38.7162 13.0962Z" fill="#3364D1"/>
<path d="M8.695 9.65938H3.40751L3.34875 9.89641C7.46126 10.9631 10.105 13.5112 11.28 16.5927L10.1638 10.726C10.0968 10.3945 9.90843 10.1006 9.63622 9.90294C9.36401 9.70525 9.02795 9.61828 8.695 9.65938Z" fill="#FFAB00"/>
<defs>
<linearGradient id="paint0_linear" x1="23.5" y1="0" x2="23.5" y2="32" gradientUnits="userSpaceOnUse">
<stop stop-color="white"/>
<stop offset="0.97" stop-color="#D9D9D9"/>
<stop offset="1" stop-color="#E2E9F1"/>
</linearGradient>
</defs>
</svg>
